<svg id="Layer_1" data-name="Layer 1" xmlns="http://www.w3.org/2000/svg" viewBox="0 0 994.44 365.5"><defs><style>.cls-1{fill:#231f20;}</style></defs><title>LOGO</title><polygon class="cls-1" points="332.67 305.88 332.67 346.09 332.49 346.09 317.23 305.88 302.67 305.88 302.67 364.59 314.25 364.59 314.25 323.48 314.42 323.48 329.86 364.59 344.24 364.59 344.24 305.88 332.67 305.88"/><polygon class="cls-1" points="356.53 305.88 356.53 364.58 392.4 364.58 392.4 354.89 369.16 354.89 369.16 339.1 390.21 339.1 390.21 329.4 369.16 329.4 369.16 315.58 391.52 315.58 391.52 305.88 356.53 305.88"/><polygon class="cls-1" points="451.69 305.88 444.77 349.3 444.59 349.3 437.22 305.88 425.12 305.88 417.75 349.3 417.57 349.3 410.65 305.88 398.54 305.88 409.95 364.59 424.07 364.59 431.09 322 431.26 322 438.27 364.59 452.4 364.59 463.8 305.88 451.69 305.88"/><polygon class="cls-1" points="520.99 305.88 512.22 328.57 512.04 328.57 503.8 305.88 489.59 305.88 505.82 341.48 505.82 364.58 518.45 364.58 518.45 341.48 534.68 305.88 520.99 305.88"/><path class="cls-1" d="M571.87,358.89a26.48,26.48,0,0,0,1.23,6.74,7.47,7.47,0,0,0,2.62,3.78,9.15,9.15,0,0,0,9,0,7.52,7.52,0,0,0,2.63-3.78,26.22,26.22,0,0,0,1.23-6.74q.31-4.16.31-10.08c0-4-.11-7.29-.31-10a26.69,26.69,0,0,0-1.23-6.74,7.5,7.5,0,0,0-2.63-3.82,9.15,9.15,0,0,0-9,0A7.45,7.45,0,0,0,573.1,332a27,27,0,0,0-1.23,6.74c-.2,2.75-.31,6.08-.31,10s.1,7.3.31,10.08m-12.28-22.37a25.89,25.89,0,0,1,2.9-9.66,15.72,15.72,0,0,1,6.45-6.29q4.21-2.26,11.31-2.26c4.75,0,8.51.75,11.32,2.26a15.7,15.7,0,0,1,6.44,6.29,26,26,0,0,1,2.9,9.66,115.59,115.59,0,0,1,0,24.63,26,26,0,0,1-2.9,9.62,14.89,14.89,0,0,1-6.44,6.16c-2.81,1.42-6.58,2.14-11.32,2.14s-8.5-.72-11.31-2.14a14.91,14.91,0,0,1-6.45-6.16,25.83,25.83,0,0,1-2.9-9.62,115.59,115.59,0,0,1,0-24.63" transform="translate(-17.41 -13.58)"/><path class="cls-1" d="M630.42,345.12q4.56,0,7-2t2.45-6.78q0-8.15-8.77-8.14h-6v16.94Zm5.44-25.65q7.89,0,12.28,3.74t4.39,11.38a16.86,16.86,0,0,1-2.54,9.66,11.87,11.87,0,0,1-7.89,4.81v.17q4.73.66,6.92,2.87c1.46,1.48,2.37,3.86,2.73,7.15.12,1.1.2,2.29.26,3.57s.12,2.73.18,4.32c.12,3.13.29,5.51.53,7.16a4.59,4.59,0,0,0,2.28,3.37v.49H641.29a6.11,6.11,0,0,1-1.23-2.83,30.52,30.52,0,0,1-.35-3.33l-.35-11.26a8.83,8.83,0,0,0-1.84-5.43q-1.66-2-5.61-2h-6.75v24.83H612.52V319.46Z" transform="translate(-17.41 -13.58)"/><polygon class="cls-1" points="676.16 305.88 660.2 329.4 660.02 329.4 660.02 305.88 647.39 305.88 647.39 364.58 660.02 364.58 660.02 347.17 664.67 340.5 677.57 364.58 691.77 364.58 672.83 331.04 689.85 305.88 676.16 305.88"/><rect class="cls-1" y="2.36" width="33.51" height="236.42"/><polygon class="cls-1" points="59.53 2.37 59.54 238.79 141.33 238.79 141.33 211.43 93.05 211.43 93.04 2.37 59.53 2.37"/><path class="cls-1" d="M244.48,252.37H213.13V15.95h48.64l20.54,154.69L302.84,15.95h48.64V252.37H320.14V183.8c0-31.07.72-61.13,2.16-100L297.8,252.37h-31L242.31,83.83c1.8,38.85,2.16,68.9,2.16,100Z" transform="translate(-17.41 -13.58)"/><path class="cls-1" d="M424.25,82.82l11.17,100.3H412ZM403,15.95,372.37,252.37h31.34l5.41-45.26h28.82l5,45.26h33.87L446.59,15.95Z" transform="translate(-17.41 -13.58)"/><polygon class="cls-1" points="549.14 2.37 514.2 106.73 514.2 2.37 480.69 2.37 480.69 238.79 514.2 238.79 514.2 120.24 549.15 238.79 586.62 238.79 545.9 111.46 584.08 2.37 549.14 2.37"/><rect class="cls-1" x="605.7" y="2.36" width="33.5" height="236.42"/><path class="cls-1" d="M729.4,82.82l11.17,100.3H717.15ZM708.14,15.95,677.52,252.37h31.35l5.4-45.26h28.82l5,45.26H782L751.74,15.95Z" transform="translate(-17.41 -13.58)"/><path class="cls-1" d="M840.36,254.73c-25.22,0-42.15-16.21-42.15-44.91v-150c0-27.69,17.65-46.27,49-46.27,30.63,0,46.49,18.58,46.49,46.27V95H862.34V58.84c0-8.78-3.6-17.9-15.13-17.9-11.89,0-15.13,9.12-15.13,17.9V209.47c0,8.79,3.6,17.9,15.49,17.9,10.09,0,15.49-6.75,15.49-17.9v-53H844.68V130.78H894.4V252.37H875l-6.48-10.48c-4.69,7.09-13.7,12.84-28.1,12.84" transform="translate(-17.41 -13.58)"/><polygon class="cls-1" points="905.8 2.37 905.81 238.79 994.44 238.79 994.44 211.43 939.31 211.43 939.31 124.29 974.98 124.29 974.98 97.27 939.31 97.27 939.31 29.72 992.99 29.72 992.99 2.37 905.8 2.37"/></svg>